<svg xmlns="http://www.w3.org/2000/svg" viewBox="0 0 640 800"><g fill="none" stroke="#26577c"><path d="M64 0 0 64M128 0 64 64M128 0l64 64M192 0l64 64M256 0l64 64M384 0l-64 64M384 0l64 64M512 0l-64 64M512 0l64 64M576 0l64 64M704 0l-64 64"/><path d="M64 64 0 128M128 64l-64 64M192 64l-64 64M256 64l-64 64M320 64l-64 64M384 64l-64 64M384 64l64 64M512 64l-64 64M512 64l64 64M640 64l-64 64M704 64l-64 64" opacity=".92"/><path d="M64 128 0 192M64 128l64 64M192 128l-64 64M192 128l64 64M256 128l64 64M320 128l64 64M448 128l-64 64M512 128l-64 64M512 128l64 64M576 128l64 64M640 128l64 64" opacity=".85"/><path d="M64 192 0 256M64 192l64 64M192 192l-64 64M192 192l64 64M320 192l-64 64M384 192l-64 64M448 192l-64 64M512 192l-64 64M512 192l64 64M640 192l-64 64M704 192l-64 64" opacity=".77"/><path d="M64 256 0 320M128 256l-64 64M128 256l64 64M192 256l64 64M320 256l-64 64M384 256l-64 64M448 256l-64 64M512 256l-64 64M576 256l-64 64M576 256l64 64M640 256l64 64" opacity=".7"/><path d="M64 320 0 384M64 320l64 64M128 320l64 64M256 320l-64 64M320 320l-64 64M320 320l64 64M384 320l64 64M448 320l64 64M512 320l64 64M640 320l-64 64M704 320l-64 64" opacity=".62"/><path d="M64 384 0 448M128 384l-64 64M192 384l-64 64M256 384l-64 64M320 384l-64 64M320 384l64 64M384 384l64 64M448 384l64 64M576 384l-64 64M576 384l64 64M704 384l-64 64" opacity=".54"/><path d="M64 448 0 512M128 448l-64 64M192 448l-64 64M256 448l-64 64M320 448l-64 64M320 448l64 64M384 448l64 64M512 448l-64 64M576 448l-64 64M576 448l64 64M704 448l-64 64" opacity=".47"/><path d="M64 512 0 576M64 512l64 64M192 512l-64 64M192 512l64 64M320 512l-64 64M320 512l64 64M384 512l64 64M512 512l-64 64M576 512l-64 64M640 512l-64 64M704 512l-64 64" opacity=".39"/><path d="M64 576 0 640M64 576l64 64M192 576l-64 64M256 576l-64 64M320 576l-64 64M384 576l-64 64M384 576l64 64M512 576l-64 64M512 576l64 64M640 576l-64 64M704 576l-64 64" opacity=".32"/><path d="m0 640 64 64M128 640l-64 64M192 640l-64 64M192 640l64 64M320 640l-64 64M384 640l-64 64M448 640l-64 64M512 640l-64 64M576 640l-64 64M640 640l-64 64M704 640l-64 64" opacity=".24"/><path d="M64 704 0 768M64 704l64 64M192 704l-64 64M256 704l-64 64M320 704l-64 64M384 704l-64 64M448 704l-64 64M512 704l-64 64M576 704l-64 64M576 704l64 64M704 704l-64 64" opacity=".16"/><path d="m0 768 64 64M128 768l-64 64M192 768l-64 64M256 768l-64 64M320 768l-64 64M384 768l-64 64M448 768l-64 64M512 768l-64 64M512 768l64 64M640 768l-64 64M704 768l-64 64" opacity=".09"/></g></svg>