<svg xmlns="http://www.w3.org/2000/svg" viewBox="0 0 800 800"><g fill="none" stroke="#26577c"><path d="m0 0 64 64M128 0 64 64M192 0l-64 64M192 0l64 64M320 0l-64 64M384 0l-64 64M448 0l-64 64M448 0l64 64M576 0l-64 64M576 0l64 64M704 0l-64 64M768 0l-64 64M832 0l-64 64"/><path d="m0 64 64 64M64 64l64 64M192 64l-64 64M256 64l-64 64M320 64l-64 64M320 64l64 64M448 64l-64 64M512 64l-64 64M512 64l64 64M640 64l-64 64M640 64l64 64M768 64l-64 64M832 64l-64 64" opacity=".92"/><path d="M64 128 0 192M64 128l64 64M192 128l-64 64M256 128l-64 64M256 128l64 64M384 128l-64 64M384 128l64 64M448 128l64 64M512 128l64 64M640 128l-64 64M704 128l-64 64M704 128l64 64M832 128l-64 64" opacity=".85"/><path d="m0 192 64 64M128 192l-64 64M128 192l64 64M256 192l-64 64M320 192l-64 64M384 192l-64 64M384 192l64 64M512 192l-64 64M576 192l-64 64M576 192l64 64M704 192l-64 64M704 192l64 64M768 192l64 64" opacity=".77"/><path d="M64 256 0 320M64 256l64 64M128 256l64 64M192 256l64 64M320 256l-64 64M320 256l64 64M448 256l-64 64M448 256l64 64M512 256l64 64M576 256l64 64M704 256l-64 64M768 256l-64 64M768 256l64 64" opacity=".7"/><path d="m0 320 64 64M128 320l-64 64M192 320l-64 64M256 320l-64 64M320 320l-64 64M320 320l64 64M384 320l64 64M512 320l-64 64M576 320l-64 64M640 320l-64 64M704 320l-64 64M768 320l-64 64M832 320l-64 64" opacity=".62"/><path d="M64 384 0 448M128 384l-64 64M192 384l-64 64M256 384l-64 64M256 384l64 64M384 384l-64 64M448 384l-64 64M512 384l-64 64M512 384l64 64M640 384l-64 64M704 384l-64 64M768 384l-64 64M768 384l64 64" opacity=".54"/><path d="m0 448 64 64M128 448l-64 64M192 448l-64 64M192 448l64 64M256 448l64 64M320 448l64 64M384 448l64 64M448 448l64 64M512 448l64 64M640 448l-64 64M640 448l64 64M768 448l-64 64M768 448l64 64" opacity=".47"/><path d="m0 512 64 64M128 512l-64 64M128 512l64 64M256 512l-64 64M320 512l-64 64M320 512l64 64M448 512l-64 64M448 512l64 64M512 512l64 64M640 512l-64 64M704 512l-64 64M704 512l64 64M832 512l-64 64" opacity=".39"/><path d="m0 576 64 64M64 576l64 64M128 576l64 64M256 576l-64 64M320 576l-64 64M384 576l-64 64M448 576l-64 64M512 576l-64 64M512 576l64 64M576 576l64 64M704 576l-64 64M704 576l64 64M768 576l64 64" opacity=".32"/><path d="M64 640 0 704M64 640l64 64M192 640l-64 64M256 640l-64 64M320 640l-64 64M384 640l-64 64M448 640l-64 64M448 640l64 64M512 640l64 64M640 640l-64 64M640 640l64 64M704 640l64 64M832 640l-64 64" opacity=".24"/><path d="m0 704 64 64M64 704l64 64M128 704l64 64M256 704l-64 64M320 704l-64 64M384 704l-64 64M384 704l64 64M512 704l-64 64M576 704l-64 64M576 704l64 64M704 704l-64 64M768 704l-64 64M832 704l-64 64" opacity=".16"/><path d="M64 768 0 832M64 768l64 64M192 768l-64 64M192 768l64 64M256 768l64 64M320 768l64 64M448 768l-64 64M512 768l-64 64M576 768l-64 64M640 768l-64 64M704 768l-64 64M768 768l-64 64M832 768l-64 64" opacity=".09"/></g></svg>