<svg xmlns="http://www.w3.org/2000/svg" viewBox="0 0 1422 800"><g fill="none" stroke="#26577c"><path d="m0 0 64 64M64 0l64 64M192 0l-64 64M192 0l64 64M256 0l64 64M384 0l-64 64M448 0l-64 64M512 0l-64 64M576 0l-64 64M640 0l-64 64M704 0l-64 64M704 0l64 64M832 0l-64 64M896 0l-64 64M896 0l64 64M1024 0l-64 64M1088 0l-64 64M1152 0l-64 64M1216 0l-64 64M1216 0l64 64M1344 0l-64 64M1408 0l-64 64M1472 0l-64 64"/><path d="M64 64 0 128M128 64l-64 64M128 64l64 64M256 64l-64 64M320 64l-64 64M384 64l-64 64M384 64l64 64M448 64l64 64M512 64l64 64M576 64l64 64M704 64l-64 64M704 64l64 64M832 64l-64 64M832 64l64 64M960 64l-64 64M960 64l64 64M1088 64l-64 64M1088 64l64 64M1216 64l-64 64M1280 64l-64 64M1344 64l-64 64M1408 64l-64 64M1408 64l64 64" opacity=".92"/><path d="M64 128 0 192M64 128l64 64M192 128l-64 64M192 128l64 64M256 128l64 64M320 128l64 64M384 128l64 64M448 128l64 64M512 128l64 64M640 128l-64 64M704 128l-64 64M768 128l-64 64M832 128l-64 64M832 128l64 64M960 128l-64 64M960 128l64 64M1088 128l-64 64M1088 128l64 64M1216 128l-64 64M1216 128l64 64M1344 128l-64 64M1408 128l-64 64M1472 128l-64 64" opacity=".85"/><path d="M64 192 0 256M64 192l64 64M192 192l-64 64M256 192l-64 64M256 192l64 64M320 192l64 64M448 192l-64 64M512 192l-64 64M576 192l-64 64M576 192l64 64M704 192l-64 64M768 192l-64 64M832 192l-64 64M896 192l-64 64M960 192l-64 64M960 192l64 64M1024 192l64 64M1152 192l-64 64M1216 192l-64 64M1280 192l-64 64M1280 192l64 64M1344 192l64 64M1408 192l64 64" opacity=".77"/><path d="M64 256 0 320M128 256l-64 64M128 256l64 64M256 256l-64 64M256 256l64 64M320 256l64 64M448 256l-64 64M448 256l64 64M576 256l-64 64M640 256l-64 64M640 256l64 64M768 256l-64 64M832 256l-64 64M832 256l64 64M896 256l64 64M960 256l64 64M1024 256l64 64M1152 256l-64 64M1152 256l64 64M1280 256l-64 64M1344 256l-64 64M1408 256l-64 64M1408 256l64 64" opacity=".7"/><path d="M64 320 0 384M64 320l64 64M192 320l-64 64M256 320l-64 64M256 320l64 64M384 320l-64 64M448 320l-64 64M448 320l64 64M576 320l-64 64M640 320l-64 64M640 320l64 64M768 320l-64 64M832 320l-64 64M832 320l64 64M960 320l-64 64M960 320l64 64M1024 320l64 64M1088 320l64 64M1152 320l64 64M1216 320l64 64M1280 320l64 64M1344 320l64 64M1472 320l-64 64" opacity=".62"/><path d="m0 384 64 64M64 384l64 64M192 384l-64 64M256 384l-64 64M320 384l-64 64M384 384l-64 64M448 384l-64 64M512 384l-64 64M576 384l-64 64M640 384l-64 64M704 384l-64 64M704 384l64 64M832 384l-64 64M896 384l-64 64M960 384l-64 64M960 384l64 64M1024 384l64 64M1152 384l-64 64M1152 384l64 64M1216 384l64 64M1344 384l-64 64M1408 384l-64 64M1472 384l-64 64" opacity=".54"/><path d="M64 448 0 512M64 448l64 64M192 448l-64 64M256 448l-64 64M320 448l-64 64M384 448l-64 64M448 448l-64 64M512 448l-64 64M576 448l-64 64M640 448l-64 64M640 448l64 64M768 448l-64 64M768 448l64 64M896 448l-64 64M960 448l-64 64M1024 448l-64 64M1088 448l-64 64M1152 448l-64 64M1152 448l64 64M1216 448l64 64M1280 448l64 64M1408 448l-64 64M1408 448l64 64" opacity=".47"/><path d="M64 512 0 576M128 512l-64 64M192 512l-64 64M256 512l-64 64M320 512l-64 64M320 512l64 64M448 512l-64 64M512 512l-64 64M576 512l-64 64M640 512l-64 64M704 512l-64 64M768 512l-64 64M768 512l64 64M896 512l-64 64M960 512l-64 64M1024 512l-64 64M1024 512l64 64M1152 512l-64 64M1152 512l64 64M1280 512l-64 64M1344 512l-64 64M1408 512l-64 64M1472 512l-64 64" opacity=".39"/><path d="M64 576 0 640M128 576l-64 64M192 576l-64 64M192 576l64 64M320 576l-64 64M384 576l-64 64M448 576l-64 64M512 576l-64 64M512 576l64 64M640 576l-64 64M704 576l-64 64M768 576l-64 64M832 576l-64 64M896 576l-64 64M960 576l-64 64M960 576l64 64M1024 576l64 64M1152 576l-64 64M1216 576l-64 64M1280 576l-64 64M1344 576l-64 64M1408 576l-64 64M1472 576l-64 64" opacity=".32"/><path d="M64 640 0 704M128 640l-64 64M192 640l-64 64M192 640l64 64M320 640l-64 64M320 640l64 64M384 640l64 64M448 640l64 64M512 640l64 64M640 640l-64 64M704 640l-64 64M768 640l-64 64M832 640l-64 64M896 640l-64 64M960 640l-64 64M1024 640l-64 64M1024 640l64 64M1088 640l64 64M1216 640l-64 64M1280 640l-64 64M1344 640l-64 64M1344 640l64 64M1472 640l-64 64" opacity=".24"/><path d="m0 704 64 64M64 704l64 64M128 704l64 64M192 704l64 64M320 704l-64 64M320 704l64 64M384 704l64 64M448 704l64 64M576 704l-64 64M576 704l64 64M704 704l-64 64M704 704l64 64M832 704l-64 64M832 704l64 64M896 704l64 64M1024 704l-64 64M1088 704l-64 64M1152 704l-64 64M1216 704l-64 64M1216 704l64 64M1344 704l-64 64M1408 704l-64 64M1408 704l64 64" opacity=".16"/><path d="m0 768 64 64M64 768l64 64M192 768l-64 64M256 768l-64 64M256 768l64 64M384 768l-64 64M384 768l64 64M512 768l-64 64M576 768l-64 64M576 768l64 64M640 768l64 64M768 768l-64 64M768 768l64 64M896 768l-64 64M896 768l64 64M1024 768l-64 64M1088 768l-64 64M1152 768l-64 64M1216 768l-64 64M1216 768l64 64M1344 768l-64 64M1408 768l-64 64M1472 768l-64 64" opacity=".09"/></g></svg>