<svg xmlns="http://www.w3.org/2000/svg" viewBox="0 0 30 30"><path d="M26 6.095V5.048a.524.524 0 0 0-.524-.524h-2.095c-.207 0-.374.014-.524.052v-.052A.524.524 0 0 0 22.333 4H19.19c-.908 0-1.237.515-1.429 1.048h-.425c-.122-.163-.24-.374-.24-.524A.525.525 0 0 0 16.571 4h-3.667a.53.53 0 0 0-.521.471c-.012.11-.235.576-.581.576h-1.435a1 1 0 0 1-.126-.211.53.53 0 0 0-.48-.313H4.524A.525.525 0 0 0 4 5.048v4.19c0 1.479.432 3.351.523 3.728l-.004.794-.355.336a.52.52 0 0 0-.164.38v2.095c0 .139.055.272.153.37l.37.37v2.317l-.496 1.492a.5.5 0 0 0-.011.293l.487 1.948-.475 1.427a.523.523 0 0 0 .496.689h7.333a.52.52 0 0 0 .37-.153l.047-.047c.279.379.666.723 1.155.723H15c.386 0 .723-.168 1.02-.317.203-.102.413-.207.552-.207h2.619a.52.52 0 0 0 .37-.153l.127-.127.095.123c.258.335.523.681.979.681h2.619c.29 0 .524-.234.524-.524V25.1l1.445.36a.524.524 0 0 0 .65-.511c-.001-.051-.033-5.191 0-7.847a.53.53 0 0 0-.153-.377l-.37-.37v-2.402a.52.52 0 0 0-.153-.37l-.257-.257.317-.634.464-.464a.53.53 0 0 0 .152-.371l-.008-2.624a.5.5 0 0 0-.015-.126l-.469-1.902.437-.875A.5.5 0 0 0 26 6.095m-6.239 2.096 1.594 1.048-.532 3.143-4.252-3.143ZM9.762 21.81l-2.095-1.571 1.048-3.667 4.19 4.19Zm11.105-.524h-2.445L7.667 8.676l1.955-.485 12.711 9.7Z"/></svg>