<svg xmlns="http://www.w3.org/2000/svg" id="Layer_2" data-name="Layer 2" viewBox="0 0 745.45 115.24"><defs><style>.cls-2{fill:#9e76ff}</style></defs><g id="Layer_2-2" data-name="Layer 2"><path d="M78.39 57.42c.63.69.71 2 .64 3.07l-3.47 14.25c-.56 2.35-2.46 6.09-5.13 6.09H44.19c-2.67 0-4.56-3.74-5.12-6.09l-3.48-14.25c-.07-1.08 0-2.38.64-3.07.69-.75 2.3-1.19 4.41-1.19h33.35c2.12 0 3.73.44 4.41 1.19Z" class="cls-2"/><path d="m114.05 102.19-1.51-2.38.44-1.65-.18-4.63v-4.28l-1.61-3.64 1.61-7.11v-4.1l-1.16-1.79-11.64-.48 10.65-4.54-.36-1.26 2.25-12.59.44-9.37-6.55-8.01 6.37-16.45-2.06-3.77 1.8-9.18c0-.16-.05-.3-.14-.43l-2.31-3.3c-.22-.3-.63-.4-.96-.21L95.42 7.23c-.11 0-2.35-1.33-2.45-1.38l-7.58-4.41a.75.75 0 0 0-.39-.07l-11.46 1.6L52.82 6.9 42.28.02c-.08 0-.14-.01-.22-.02L31.94 3.58l1.12 6.75-12.51-8.32-5.87 7.81-12.11-7.4-1.88 8L6.1 26.39.96 43.15l1.3 4.33c-.03.14.39 2.1.57 2.24l2.14 6.86C4.94 56.66 1.1 68.8 1.1 68.8c-.04.14-.02.29.03.43 1.55 4.24 2.67 7.35 2.68 7.48.01.09 0 .19 0 .19s-.01.08-.04.16c-.04.13-3.25 6.41-3.25 6.41.09 0 5.64 1.72 5.67 1.72L.73 98.47l2.08 7.77-2.82 8.5 6.63-.04 3.8-1.81.5-.13 5.87 2.49c3.27-.85 5.89-1.5 9.22-2.37l8.52-.89c2.2-5.05 4.39-10.09 6.58-15.13 1.09 5.94 2.18 11.88 3.28 17.82l7.98-3.95s13.38 2.54 13.49 2.54c2.23-1.53 4.45-3.05 6.68-4.59 3.77 1.55 7.53 3.1 11.29 4.65 3.09-.11 6.18-.23 9.28-.34 1.48-1.35 2.97-2.69 4.45-4.03 2.74 1.46 5.49 2.92 8.23 4.37l4.04-.44c.38-.03.73-.02 1.41-.05s1.68-.1 3.36-.28c-.18-3.52-.43-6.74-.56-10.35ZM37.76 27.08c0-3.67 2.98-6.65 6.65-6.65h25.78c3.67 0 6.65 2.98 6.65 6.65v.73c0 3.67-2.98 6.65-6.65 6.65H44.41c-3.67 0-6.65-2.98-6.65-6.65Zm57.18 33.11-.04.41-4.42 18.13c-1.91 7.99-8 16.07-17.24 16.07H41.36c-9.24 0-15.32-8.08-17.24-16.07L19.7 60.6l-.04-.41c-.49-5.29.74-9.6 3.65-12.79 3.06-3.36 7.81-5.14 13.73-5.14h40.51c5.92 0 10.67 1.78 13.73 5.14 2.92 3.2 4.14 7.5 3.65 12.79Z" class="cls-2"/><path d="M140.72 80.42V23.01h24.03c4.21 0 8.06.7 11.56 2.09s6.52 3.38 9.06 5.94c2.54 2.57 4.5 5.6 5.86 9.1 1.37 3.5 2.05 7.35 2.05 11.56s-.68 8.08-2.05 11.6c-1.37 3.53-3.32 6.56-5.86 9.1s-5.56 4.51-9.06 5.9-7.35 2.09-11.56 2.09h-24.03Zm13.94-9.52-1.89-2.79h11.56c2.3 0 4.35-.4 6.15-1.19s3.35-1.9 4.63-3.32 2.28-3.14 2.99-5.17c.71-2.02 1.07-4.26 1.07-6.72s-.36-4.7-1.07-6.72-1.71-3.74-2.99-5.17a13.5 13.5 0 0 0-4.63-3.32c-1.8-.79-3.85-1.19-6.15-1.19h-11.81l2.13-2.62V70.9Zm68.46 10.34c-4.54 0-8.57-.98-12.09-2.95s-6.31-4.65-8.36-8.04-3.07-7.27-3.07-11.64 1.02-8.25 3.07-11.64 4.84-6.07 8.36-8.04 7.56-2.95 12.09-2.95 8.57.98 12.1 2.95 6.3 4.65 8.32 8.04q3.03 5.085 3.03 11.64c0 6.555-1.01 8.25-3.03 11.64s-4.8 6.07-8.32 8.04-7.56 2.95-12.1 2.95m0-11.32c1.97 0 3.72-.49 5.25-1.48 1.53-.98 2.73-2.32 3.61-4.02q1.305-2.535 1.23-5.82c.05-2.19-.36-4.14-1.23-5.86-.88-1.72-2.08-3.08-3.61-4.06s-3.28-1.48-5.25-1.48-3.73.49-5.29 1.48c-1.56.98-2.78 2.34-3.65 4.06-.88 1.72-1.28 3.68-1.23 5.86-.05 2.19.35 4.13 1.23 5.82.87 1.7 2.09 3.03 3.65 4.02 1.56.98 3.32 1.48 5.29 1.48m27.97-21.57V36.87h29.27v11.48Zm7.7 32.07V25.89h13.12v54.53Zm44.69.73c-3.66 0-6.93-.97-9.8-2.91s-5.15-4.62-6.85-8.04-2.54-7.28-2.54-11.6.85-8.34 2.54-11.73 4.02-6.05 6.97-8c2.95-1.94 6.31-2.91 10.09-2.91q3.12 0 5.7.9c1.72.6 3.24 1.43 4.55 2.5q1.965 1.605 3.36 3.69c.93 1.39 1.61 2.88 2.05 4.47l-2.71-.33V36.86h13.04V80.4H316.6V69.9l2.95-.08q-.66 2.295-2.13 4.35c-.98 1.37-2.19 2.57-3.61 3.61a17.7 17.7 0 0 1-4.76 2.46q-2.625.9-5.58.9Zm3.61-11.07c2.02 0 3.77-.46 5.25-1.39s2.62-2.26 3.44-3.98 1.23-3.76 1.23-6.11-.41-4.39-1.23-6.11-1.97-3.06-3.44-4.02c-1.48-.96-3.23-1.43-5.25-1.43s-3.68.48-5.12 1.43c-1.45.96-2.58 2.3-3.4 4.02s-1.23 3.76-1.23 6.11.41 4.39 1.23 6.11 1.95 3.05 3.4 3.98 3.16 1.39 5.12 1.39" style="fill:#c4c3b8"/><path d="M364.71 81.24c-3.77 0-7.17-.45-10.21-1.35-3.03-.9-5.73-2.21-8.08-3.94a32.3 32.3 0 0 1-6.31-6.11l8.45-9.59c2.73 3.66 5.48 6.12 8.24 7.38s5.62 1.89 8.57 1.89c1.48 0 2.81-.19 4.02-.57q1.8-.57 2.79-1.68c.99-1.11.98-1.65.98-2.75 0-.82-.21-1.56-.62-2.21s-.97-1.23-1.68-1.72-1.56-.94-2.54-1.35-2.02-.76-3.12-1.07q-1.635-.45-3.36-.78c-3.17-.71-5.93-1.58-8.28-2.62s-4.3-2.31-5.86-3.81-2.72-3.23-3.49-5.17-1.15-4.11-1.15-6.52c0-2.57.59-4.93 1.76-7.09s2.76-4.02 4.76-5.58 4.3-2.76 6.93-3.61c2.62-.85 5.36-1.27 8.2-1.27 3.77 0 7.01.4 9.72 1.19s5.03 1.93 6.97 3.4c1.94 1.48 3.59 3.25 4.96 5.33l-8.61 8.28c-1.15-1.42-2.39-2.6-3.73-3.53q-2.01-1.395-4.26-2.13c-2.25-.735-3.05-.74-4.63-.74s-3.05.21-4.22.62-2.09.98-2.75 1.72-.98 1.63-.98 2.67c0 .93.27 1.72.82 2.38s1.28 1.24 2.21 1.76 2 .96 3.2 1.31c1.2.36 2.46.64 3.77.86 3.01.6 5.73 1.39 8.16 2.38 2.43.98 4.54 2.19 6.31 3.61 1.78 1.42 3.14 3.1 4.1 5.04s1.43 4.2 1.43 6.76c0 3.99-.97 7.37-2.91 10.13s-4.59 4.87-7.95 6.31c-3.36 1.45-7.23 2.17-11.6 2.17Zm31.57-.82V19.74h12.87v25.99l-2.62.98q.9-2.955 3.24-5.37c1.56-1.61 3.43-2.91 5.62-3.89a16.7 16.7 0 0 1 6.89-1.48q4.92 0 8.28 2.01c2.24 1.34 3.94 3.33 5.08 5.99 1.15 2.65 1.72 5.89 1.72 9.72v26.73h-13.2V54.75c0-1.75-.25-3.2-.74-4.35q-.735-1.725-2.25-2.58c-1.01-.57-2.25-.83-3.73-.78-1.15 0-2.21.18-3.2.53-.98.36-1.83.88-2.54 1.56s-1.27 1.46-1.68 2.34-.62 1.83-.62 2.87v26.08Zm72.57.82c-4.54 0-8.57-.98-12.09-2.95-3.53-1.97-6.31-4.65-8.36-8.04s-3.08-7.27-3.08-11.64 1.03-8.25 3.08-11.64 4.84-6.07 8.36-8.04c3.53-1.97 7.56-2.95 12.09-2.95s8.57.98 12.09 2.95c3.53 1.97 6.3 4.65 8.32 8.04q3.03 5.085 3.03 11.64c0 6.555-1.01 8.25-3.03 11.64s-4.8 6.07-8.32 8.04c-3.53 1.97-7.56 2.95-12.09 2.95m0-11.32c1.97 0 3.72-.49 5.25-1.48 1.53-.98 2.73-2.32 3.61-4.02q1.305-2.535 1.23-5.82c.05-2.19-.36-4.14-1.23-5.86-.88-1.72-2.08-3.08-3.61-4.06s-3.28-1.48-5.25-1.48-3.73.49-5.29 1.48c-1.56.98-2.78 2.34-3.65 4.06-.88 1.72-1.28 3.68-1.23 5.86-.05 2.19.35 4.13 1.23 5.82.87 1.7 2.09 3.03 3.65 4.02 1.56.98 3.32 1.48 5.29 1.48m39.93 10.5-14.35-43.54h13.86l8.04 28.29-1.72-.33 9.02-21.98h7.71l9.51 22.06-1.89.16L547 36.87h13.86l-14.84 43.54h-9.68l-9.43-23.37.98.16-9.43 23.21h-9.68Zm76.76.82c-4.21 0-7.98-.98-11.32-2.95-3.33-1.97-5.97-4.66-7.91-8.08s-2.91-7.28-2.91-11.6.97-8.19 2.91-11.6c1.94-3.42 4.58-6.11 7.91-8.08s7.11-2.95 11.32-2.95c3.88 0 7.45.68 10.7 2.05s5.83 3.28 7.75 5.74l-7.13 8.53a17.5 17.5 0 0 0-2.71-2.46c-1.04-.76-2.19-1.37-3.44-1.8a11.9 11.9 0 0 0-3.94-.66c-2.08 0-3.91.48-5.49 1.43-1.59.96-2.82 2.28-3.69 3.98-.88 1.7-1.31 3.64-1.31 5.82s.45 3.96 1.35 5.66 2.15 3.03 3.73 4.02c1.58.98 3.39 1.48 5.41 1.48 1.42 0 2.73-.18 3.94-.53 1.2-.35 2.31-.89 3.32-1.6s1.95-1.58 2.83-2.62l7.05 8.61c-1.86 2.35-4.44 4.21-7.75 5.58s-6.85 2.05-10.62 2.05Zm41.65-.09c-3.66 0-6.93-.97-9.8-2.91s-5.15-4.62-6.85-8.04S608 62.92 608 58.6s.85-8.34 2.54-11.73 4.02-6.05 6.97-8c2.95-1.94 6.31-2.91 10.09-2.91q3.12 0 5.7.9c1.72.6 3.24 1.43 4.55 2.5q1.965 1.605 3.36 3.69c.93 1.39 1.61 2.88 2.05 4.47l-2.71-.33V36.86h13.04V80.4h-13.28V69.9l2.95-.08q-.66 2.295-2.13 4.35c-.98 1.37-2.19 2.57-3.61 3.61a17.7 17.7 0 0 1-4.76 2.46q-2.625.9-5.58.9Zm3.61-11.07c2.02 0 3.77-.46 5.25-1.39s2.62-2.26 3.44-3.98 1.23-3.76 1.23-6.11-.41-4.39-1.23-6.11-1.97-3.06-3.44-4.02c-1.48-.96-3.23-1.43-5.25-1.43s-3.68.48-5.12 1.43c-1.45.96-2.58 2.3-3.4 4.02s-1.23 3.76-1.23 6.11.41 4.39 1.23 6.11 1.95 3.05 3.4 3.98 3.16 1.39 5.12 1.39m49.03 11.16c-4.26 0-8.02-.68-11.28-2.05-3.25-1.37-5.84-3.2-7.75-5.49l7.95-6.89c1.69 1.7 3.61 2.94 5.74 3.73s4.15 1.19 6.07 1.19c.76 0 1.45-.08 2.05-.25.6-.16 1.11-.4 1.52-.7s.72-.66.94-1.07.33-.89.33-1.43c0-1.09-.49-1.94-1.48-2.54-.49-.27-1.31-.6-2.46-.98s-2.62-.82-4.43-1.31c-2.57-.66-4.8-1.44-6.68-2.34-1.89-.9-3.43-1.95-4.63-3.16a13 13 0 0 1-2.54-3.81q-.9-2.085-.9-4.71c0-2.02.48-3.85 1.43-5.49.96-1.64 2.24-3.06 3.85-4.26s3.47-2.12 5.58-2.75c2.1-.63 4.28-.94 6.52-.94 2.41 0 4.7.27 6.89.82s4.22 1.31 6.11 2.3c1.89.98 3.57 2.16 5.04 3.53l-6.89 7.71c-.98-.93-2.09-1.76-3.32-2.5s-2.5-1.33-3.81-1.76c-1.31-.44-2.51-.66-3.61-.66-.82 0-1.54.07-2.17.21s-1.16.36-1.6.66-.77.66-.98 1.07c-.22.41-.33.89-.33 1.43s.15 1.07.45 1.56.72.9 1.27 1.23 1.42.7 2.62 1.11 2.84.92 4.92 1.52c2.57.71 4.78 1.5 6.64 2.38s3.33 1.91 4.43 3.12c.87.93 1.53 2.01 1.97 3.24s.66 2.56.66 3.98c0 2.79-.78 5.26-2.34 7.42s-3.7 3.85-6.44 5.08c-2.73 1.23-5.85 1.85-9.35 1.85Zm46.66 0c-4.81 0-8.99-.97-12.55-2.91q-5.325-2.91-8.28-7.95c-2.955-5.04-2.95-7.2-2.95-11.52 0-3.33.55-6.4 1.64-9.18q1.635-4.185 4.59-7.26c1.97-2.05 4.31-3.63 7.01-4.76 2.71-1.12 5.67-1.68 8.9-1.68s5.86.55 8.41 1.64q3.81 1.635 6.6 4.59c2.79 2.955 3.28 4.29 4.26 6.97s1.42 5.6 1.31 8.77l-.08 3.53h-34.69l-1.89-7.38h25.91l-1.39 1.56v-1.64c-.11-1.37-.53-2.58-1.27-3.65s-1.71-1.9-2.91-2.5-2.57-.9-4.1-.9c-2.13 0-3.95.42-5.45 1.27s-2.64 2.08-3.4 3.69c-.77 1.61-1.15 3.6-1.15 5.95s.5 4.5 1.52 6.27c1.01 1.78 2.49 3.16 4.43 4.14s4.25 1.48 6.93 1.48c1.86 0 3.51-.27 4.96-.82 1.45-.54 3.02-1.48 4.71-2.79l6.15 8.69c-1.7 1.48-3.5 2.68-5.41 3.61s-3.87 1.63-5.86 2.09c-2 .46-3.98.7-5.94.7Z" style="fill:#9e76ff"/></g></svg>