<svg xmlns="http://www.w3.org/2000/svg" id="logo" data-name="logo full" viewBox="0 0 453.87 84"><defs><style>.cls-1{fill:#26577c}.cls-2{fill:#2b2b2e}</style></defs><g id="main" data-name="main 1"><path d="M33.91 1.81v27.27c0 2.33-1.92 4.22-4.3 4.22H1.85c-1.64 0-2.46-1.95-1.3-3.09l18.36-18.04.21-.21 7.77-7.63 3.87-3.8C31.92-.61 33.9.2 33.9 1.81ZM1.85 50.7h27.76c2.37 0 4.3 1.89 4.3 4.22v27.27c0 1.61-1.98 2.42-3.14 1.28l-3.87-3.8-7.77-7.63-.21-.21-7.77-7.63L.55 53.79c-1.16-1.14-.34-3.09 1.3-3.09M82.74 39.02a4.166 4.166 0 0 1 0 5.97l-1.22 1.2-2.43 2.39-1.83 1.8-8.54 8.39-5.87 5.76-.16.16-5.87 5.76-2.15 2.11c-1.16 1.14-3.14.33-3.14-1.28l.37-18.15c0-.31.14-.61.36-.83l6.47-6.35 1.46-1.43a3.51 3.51 0 0 0 0-5.02s-.01 0-.01 0l-1.44-1.42-1.11-1.09-5.69-5.59c-.23-.23-.36-.53-.36-.85l-.04-17.8c0-1.61 1.98-2.42 3.14-1.28l2.15 2.11 6.03 5.92 5.87 5.76 8.52 8.37 4.28 4.21 1.22 1.2Z" class="cls-1"/><path d="M107.29 21.27c-1.48 0-2.64-.37-3.46-1.11s-1.23-1.8-1.23-3.16c0-1.28.42-2.33 1.26-3.13s1.99-1.2 3.43-1.2c1.52 0 2.7.37 3.52 1.11s1.23 1.82 1.23 3.22c0 1.24-.42 2.27-1.26 3.07s-2.01 1.2-3.49 1.2m-3.61 38.45V28.01h7.4v31.71ZM117.04 34.87v-6.86h20.58v6.86Zm6.26 24.85V19.94h7.4v39.78ZM157.24 60.32c-3.33 0-6.27-.7-8.82-2.11-2.55-1.4-4.53-3.32-5.96-5.75-1.42-2.43-2.14-5.21-2.14-8.33 0-2.49.4-4.75 1.2-6.8s1.92-3.82 3.34-5.33c1.42-1.5 3.13-2.67 5.12-3.49s4.16-1.23 6.53-1.23c2.09 0 4.03.4 5.84 1.2s3.37 1.9 4.69 3.28 2.34 3.03 3.04 4.93c.7 1.91 1.03 3.98.99 6.23l-.06 2.59h-25.7l-1.38-5.06h20.88l-.96 1.02v-1.32c-.12-1.24-.52-2.34-1.2-3.28a7.27 7.27 0 0 0-2.62-2.23c-1.06-.54-2.24-.81-3.52-.81-1.97 0-3.62.38-4.96 1.14s-2.36 1.86-3.04 3.28-1.02 3.2-1.02 5.33.43 3.83 1.29 5.36 2.09 2.7 3.67 3.52 3.44 1.23 5.57 1.23c1.48 0 2.85-.24 4.09-.72s2.59-1.34 4.03-2.59l3.67 5.12c-1.08 1-2.32 1.86-3.7 2.56s-2.84 1.25-4.36 1.66c-1.53.4-3.03.6-4.51.6M176.92 59.72V28.01h7.28l.12 6.38-1.2.48c.36-1.04.9-2.02 1.62-2.92s1.58-1.69 2.59-2.35c1-.66 2.07-1.18 3.19-1.56s2.27-.57 3.43-.57c1.72 0 3.26.27 4.6.81a7.9 7.9 0 0 1 3.37 2.56c.9 1.16 1.57 2.65 2.02 4.45l-1.14-.24.48-.96c.44-.96 1.06-1.83 1.87-2.62.8-.78 1.71-1.48 2.71-2.11s2.06-1.09 3.16-1.41 2.2-.48 3.28-.48c2.41 0 4.41.48 6.02 1.44 1.6.96 2.81 2.43 3.61 4.39.8 1.97 1.2 4.39 1.2 7.28v19.14h-7.46V41.06c0-1.6-.21-2.93-.63-3.97s-1.06-1.81-1.93-2.32c-.86-.5-1.94-.75-3.22-.75-1 0-1.96.17-2.86.51s-1.68.82-2.32 1.44-1.14 1.33-1.5 2.14c-.36.8-.54 1.69-.54 2.65v18.96h-7.46V41c0-1.52-.22-2.8-.66-3.82s-1.08-1.81-1.93-2.35c-.84-.54-1.87-.81-3.07-.81-1 0-1.95.17-2.83.51s-1.65.81-2.29 1.41-1.14 1.3-1.5 2.11c-.36.8-.54 1.69-.54 2.65v19.02h-7.46Z" class="cls-2"/><path d="M245.05 59.84c-2.97 0-5.61-.49-7.91-1.47s-4.16-2.34-5.57-4.06l5.36-4.57c1.2 1.32 2.57 2.28 4.09 2.86s3.05.87 4.57.87c.6 0 1.15-.07 1.66-.21q.75-.21 1.29-.6t.81-.96.27-1.23c0-.88-.36-1.56-1.08-2.05-.4-.24-1.02-.51-1.87-.81-.84-.3-1.93-.63-3.25-.99-2.05-.52-3.78-1.13-5.21-1.84-1.42-.7-2.56-1.49-3.4-2.38a9.3 9.3 0 0 1-1.65-2.74c-.38-.98-.57-2.08-.57-3.28 0-1.44.32-2.76.96-3.94s1.54-2.2 2.68-3.04 2.46-1.49 3.94-1.96c1.48-.46 3.05-.69 4.7-.69s3.25.2 4.81.6c1.57.4 3.02.97 4.36 1.71s2.52 1.62 3.52 2.62l-4.57 5.06c-.72-.68-1.53-1.3-2.44-1.87-.9-.56-1.83-1-2.8-1.32s-1.83-.48-2.59-.48c-.68 0-1.29.06-1.84.18q-.81.18-1.35.57t-.81.93-.27 1.2c0 .66.11.86.33 1.26q.33.6.93 1.02c.44.24 1.09.52 1.96.84.86.32 2.04.68 3.52 1.08 1.93.52 3.56 1.1 4.9 1.75 1.34.64 2.42 1.38 3.22 2.23.68.72 1.18 1.54 1.5 2.47.32.92.48 1.95.48 3.07 0 1.97-.55 3.71-1.65 5.24s-2.62 2.73-4.54 3.61-4.09 1.32-6.5 1.32ZM277.07 59.84c-3.05 0-5.78-.72-8.18-2.17-2.41-1.44-4.3-3.41-5.69-5.9-1.38-2.49-2.08-5.32-2.08-8.48s.69-6 2.08-8.49c1.38-2.49 3.28-4.45 5.69-5.9 2.41-1.44 5.13-2.17 8.18-2.17 2.85 0 5.46.52 7.82 1.57s4.21 2.49 5.54 4.33l-4.69 5.66c-.56-.76-1.26-1.45-2.11-2.08a11 11 0 0 0-2.74-1.47c-.98-.36-2-.54-3.04-.54-1.65 0-3.1.39-4.36 1.17s-2.26 1.86-2.98 3.22-1.08 2.93-1.08 4.69.37 3.21 1.11 4.57 1.75 2.45 3.04 3.25c1.28.8 2.73 1.2 4.33 1.2 1.04 0 2.03-.14 2.95-.42s1.79-.72 2.62-1.32 1.57-1.32 2.26-2.17l4.63 5.66c-1.32 1.73-3.2 3.12-5.63 4.18a19 19 0 0 1-7.67 1.59ZM295.24 59.24V14.71h8.43v19.2l-1.69.72c.44-1.44 1.23-2.76 2.38-3.94 1.14-1.18 2.52-2.14 4.12-2.86s3.29-1.08 5.05-1.08c2.41 0 4.42.48 6.05 1.44 1.62.96 2.85 2.42 3.67 4.36.82 1.95 1.23 4.34 1.23 7.19v19.5h-8.55V40.4c0-1.44-.2-2.65-.6-3.61s-1.01-1.66-1.83-2.11c-.82-.44-1.84-.64-3.04-.6-.96 0-1.86.15-2.68.45s-1.52.73-2.11 1.29c-.58.56-1.04 1.2-1.38 1.93-.34.72-.51 1.5-.51 2.35v19.14h-8.55ZM347.17 59.84c-3.45 0-6.47-.7-9.06-2.11-2.59-1.4-4.59-3.33-6.02-5.78-1.42-2.45-2.14-5.25-2.14-8.42 0-2.49.4-4.75 1.2-6.8s1.93-3.82 3.37-5.33c1.44-1.5 3.16-2.67 5.15-3.49s4.14-1.23 6.47-1.23c2.17 0 4.17.4 6.02 1.2 1.84.8 3.44 1.92 4.78 3.34s2.38 3.11 3.1 5.06 1.04 4.04.96 6.29l-.06 2.65h-25.58l-1.38-5.24h19.92l-.96 1.08v-1.32a5.6 5.6 0 0 0-1.05-2.92 6.76 6.76 0 0 0-2.38-2.05c-.96-.5-2.05-.75-3.25-.75-1.77 0-3.26.34-4.48 1.02s-2.16 1.69-2.8 3.01-.96 2.93-.96 4.81.41 3.59 1.23 5 1.99 2.5 3.49 3.28 3.28 1.17 5.33 1.17c1.4 0 2.69-.22 3.85-.66s2.41-1.2 3.73-2.29l4.09 5.72a17.5 17.5 0 0 1-3.85 2.62c-1.4.7-2.85 1.23-4.33 1.59-1.49.36-2.95.54-4.39.54ZM366.67 59.24V27.41h8.25l.18 6.08-1.26.24c.44-1.04 1.03-1.99 1.78-2.83.74-.84 1.59-1.56 2.56-2.17s1.99-1.07 3.07-1.41 2.17-.51 3.25-.51c1.64 0 3.13.26 4.45.78s2.45 1.33 3.37 2.44c.92 1.1 1.64 2.56 2.17 4.36l-1.32-.12.42-.96c.52-.96 1.18-1.84 1.99-2.65.8-.8 1.71-1.48 2.71-2.05 1-.56 2.05-1 3.13-1.32s2.15-.48 3.19-.48c2.49 0 4.55.49 6.2 1.47 1.64.98 2.88 2.46 3.7 4.42.82 1.97 1.23 4.37 1.23 7.22v19.32h-8.55V40.52c0-1.44-.2-2.63-.6-3.55s-.98-1.61-1.74-2.08c-.76-.46-1.75-.69-2.95-.69-.92 0-1.78.15-2.56.45s-1.46.72-2.05 1.26c-.58.54-1.03 1.18-1.35 1.93a5.9 5.9 0 0 0-.48 2.38v19.02h-8.61V40.46c0-1.32-.2-2.46-.6-3.4s-.98-1.66-1.75-2.14c-.76-.48-1.71-.72-2.83-.72a7.1 7.1 0 0 0-2.56.45c-.78.3-1.46.72-2.02 1.26s-1 1.17-1.32 1.9c-.32.72-.48 1.5-.48 2.35v19.08h-8.61ZM435.15 59.84c-2.65 0-5.04-.72-7.16-2.17-2.13-1.44-3.81-3.41-5.05-5.9s-1.87-5.33-1.87-8.54.63-6.06 1.89-8.54 2.98-4.43 5.15-5.84c2.17-1.4 4.63-2.11 7.4-2.11 1.56 0 3 .23 4.3.69s2.45 1.09 3.43 1.9c.98.8 1.81 1.73 2.5 2.77.68 1.04 1.16 2.17 1.44 3.37l-1.81-.3v-7.76h8.49v31.83h-8.61V51.6l1.93-.18c-.32 1.12-.84 2.19-1.56 3.19s-1.62 1.9-2.68 2.68-2.26 1.41-3.58 1.87-2.73.69-4.21.69Zm2.35-7.4c1.6 0 3.01-.38 4.21-1.14s2.14-1.84 2.8-3.22.99-3 .99-4.84-.33-3.39-.99-4.75-1.6-2.44-2.8-3.22-2.61-1.17-4.21-1.17-2.94.39-4.12 1.17-2.12 1.86-2.8 3.22-1.02 2.95-1.02 4.75.34 3.46 1.02 4.84 1.61 2.46 2.8 3.22c1.18.76 2.56 1.14 4.12 1.14" class="cls-1"/></g></svg>