<svg xmlns="http://www.w3.org/2000/svg" id="logo" data-name="logo small" viewBox="0 0 84 84"><defs><style>.cls-1{fill:#26577c}</style></defs><g id="main" data-name="main 1"><path d="M33.91 1.81v27.27c0 2.33-1.92 4.22-4.3 4.22H1.85c-1.64 0-2.46-1.95-1.3-3.09l18.36-18.04.21-.21 7.77-7.63 3.87-3.8C31.92-.61 33.9.2 33.9 1.81ZM1.85 50.7h27.76c2.37 0 4.3 1.89 4.3 4.22v27.27c0 1.61-1.98 2.42-3.14 1.28l-3.87-3.8-7.77-7.63-.21-.21-7.77-7.63L.55 53.79c-1.16-1.14-.34-3.09 1.3-3.09M82.74 39.02a4.166 4.166 0 0 1 0 5.97l-1.22 1.2-2.43 2.39-1.83 1.8-8.54 8.39-5.87 5.76-.16.16-5.87 5.76-2.15 2.11c-1.16 1.14-3.14.33-3.14-1.28l.37-18.15c0-.31.14-.61.36-.83l6.47-6.35 1.46-1.43a3.51 3.51 0 0 0 0-5.02s-.01 0-.01 0l-1.44-1.42-1.11-1.09-5.69-5.59c-.23-.23-.36-.53-.36-.85l-.04-17.8c0-1.61 1.98-2.42 3.14-1.28l2.15 2.11 6.03 5.92 5.87 5.76 8.52 8.37 4.28 4.21 1.22 1.2Z" class="cls-1"/></g></svg>