<?xml version="1.0" encoding="UTF-8"?>
<svg id="logo" data-name="logo small" xmlns="http://www.w3.org/2000/svg" viewBox="0 0 84 84">
  <defs>
    <style>
      .cls-1 {
        fill: #26577c;
      }
    </style>
  </defs>
  <g id="main" data-name="main 1">
    <g>
      <path class="cls-1" d="m33.91,1.81v27.27c0,2.33-1.92,4.22-4.3,4.22H1.85c-1.64,0-2.46-1.95-1.3-3.09L18.91,12.17l.21-.21,7.77-7.63,3.87-3.8c1.16-1.14,3.14-.33,3.14,1.28Z"/>
      <path class="cls-1" d="m1.85,50.7h27.76c2.37,0,4.3,1.89,4.3,4.22v27.27c0,1.61-1.98,2.42-3.14,1.28l-3.87-3.8-7.77-7.63-.21-.21-7.77-7.63L.55,53.79c-1.16-1.14-.34-3.09,1.3-3.09Z"/>
      <path class="cls-1" d="m82.74,39.02c1.68,1.65,1.68,4.32,0,5.97l-1.22,1.2h0s-2.43,2.39-2.43,2.39l-1.83,1.8-8.54,8.39-5.87,5.76-.16.16-5.87,5.76-2.15,2.11c-1.16,1.14-3.14.33-3.14-1.28l.37-18.15c0-.31.14-.61.36-.83l6.47-6.35,1.46-1.43h0c1.41-1.39,1.41-3.63,0-5.02h0s-.01,0-.01,0l-1.44-1.42-1.11-1.09-5.69-5.59c-.23-.23-.36-.53-.36-.85l-.04-17.8c0-1.61,1.98-2.42,3.14-1.28l2.15,2.11,6.03,5.92,5.87,5.76,8.52,8.37,4.28,4.21,1.22,1.2Z"/>
    </g>
  </g>
</svg>
